<?xml version="1.0" encoding="UTF-8" standalone="no"?>
<svg
   width="32"
   height="32"
   viewBox="0 0 32 32"
   version="1.1"
   id="svg306"
   sodipodi:docname="sunrise.svg"
   inkscape:version="1.1 (c4e8f9e, 2021-05-24)"
   xmlns:inkscape="http://www.inkscape.org/namespaces/inkscape"
   xmlns:sodipodi="http://sodipodi.sourceforge.net/DTD/sodipodi-0.dtd"
   xmlns="http://www.w3.org/2000/svg"
   xmlns:svg="http://www.w3.org/2000/svg">
  <defs
     id="defs310" />
  <sodipodi:namedview
     id="namedview308"
     pagecolor="#ffffff"
     bordercolor="#666666"
     borderopacity="1.0"
     inkscape:pageshadow="2"
     inkscape:pageopacity="0.0"
     inkscape:pagecheckerboard="0"
     showgrid="false"
     inkscape:zoom="15.06"
     inkscape:cx="22.775564"
     inkscape:cy="24.867198"
     inkscape:window-width="1727"
     inkscape:window-height="1003"
     inkscape:window-x="1730"
     inkscape:window-y="40"
     inkscape:window-maximized="0"
     inkscape:current-layer="svg306" />
  <path
     d="m 16,1.028125 -0.43125,0.4125 -4.125,4.14375 a 0.60006,0.60006 0 1 0 0.84375,0.84375 L 15.4,3.334375 v 9.6375 a 0.60006,0.60006 0 1 0 1.2,0 v -9.6375 l 3.1125,3.09375 a 0.60006,0.60006 0 1 0 0.84375,-0.84375 l -4.125,-4.14375 z m -0.05625,16.725 a 0.60006,0.60006 0 0 0 -0.075,0.01875 0.60006,0.60006 0 0 0 -0.46875,0.6 v 3.6 a 0.60006,0.60006 0 1 0 1.2,0 v -3.6 a 0.60006,0.60006 0 0 0 -0.65625,-0.61875 z m -8.475,3.54375 a 0.60006,0.60006 0 0 0 -0.35625,1.03125 l 2.53125,2.53125 a 0.60006,0.60006 0 1 0 0.84375,-0.84375 l -2.53125,-2.53125 a 0.60006,0.60006 0 0 0 -0.43125,-0.1875 0.60006,0.60006 0 0 0 -0.05625,0 z m 16.93125,0 a 0.60006,0.60006 0 0 0 -0.35625,0.1875 l -2.53125,2.53125 a 0.60006,0.60006 0 1 0 0.84375,0.84375 l 2.53125,-2.53125 a 0.60006,0.60006 0 0 0 -0.43125,-1.03125 0.60006,0.60006 0 0 0 -0.05625,0 z m -8.4,3.075 c -3.1062,0 -5.6607,2.3724 -5.9625,5.4 H 1.6 c -0.3312,0 -0.6,0.2682 -0.6,0.6 0,0.3318 0.2688,0.6 0.6,0.6 h 28.8 c 0.3318,0 0.6,-0.2682 0.6,-0.6 0,-0.3318 -0.2682,-0.6 -0.6,-0.6 h -8.4375 c -0.3024,-3.0276 -2.8569,-5.4 -5.9625,-5.4 z"
     id="path304"
     style="stroke-width:0.6" />
</svg>
