<?xml version="1.0" encoding="UTF-8" standalone="no"?>
<svg
   width="32"
   height="32"
   viewBox="0 0 32 32"
   version="1.1"
   id="svg11"
   sodipodi:docname="sunset.svg"
   inkscape:version="1.1 (c4e8f9e, 2021-05-24)"
   xmlns:inkscape="http://www.inkscape.org/namespaces/inkscape"
   xmlns:sodipodi="http://sodipodi.sourceforge.net/DTD/sodipodi-0.dtd"
   xmlns="http://www.w3.org/2000/svg"
   xmlns:svg="http://www.w3.org/2000/svg">
  <defs
     id="defs15" />
  <sodipodi:namedview
     id="namedview13"
     pagecolor="#ffffff"
     bordercolor="#666666"
     borderopacity="1.0"
     inkscape:pageshadow="2"
     inkscape:pageopacity="0.0"
     inkscape:pagecheckerboard="0"
     showgrid="false"
     inkscape:zoom="15.06"
     inkscape:cx="5.1460823"
     inkscape:cy="25.796813"
     inkscape:window-width="1312"
     inkscape:window-height="1003"
     inkscape:window-x="2240"
     inkscape:window-y="25"
     inkscape:window-maximized="0"
     inkscape:current-layer="svg11" />
  <path
     d="m 16,1 c -0.3312,0 -0.6,0.2688 -0.6,0.6 v 9.65625 l -3.1125,-3.1125 c -0.2346,-0.2346 -0.60915,-0.2346 -0.84375,0 -0.2346,0.2346 -0.2346,0.60915 0,0.84375 L 16,13.54375 20.55625,8.9875 c 0.2346,-0.2346 0.2346,-0.60915 0,-0.84375 -0.2346,-0.2346 -0.60915,-0.2346 -0.84375,0 L 16.6,11.25625 V 1.6 C 16.6,1.2688 16.3312,1 16,1 Z m 0,16.8 c -0.3312,0 -0.6,0.2682 -0.6,0.6 V 22 c 0,0.3318 0.2688,0.6 0.6,0.6 0.3312,0 0.6,-0.2682 0.6,-0.6 v -3.6 c 0,-0.3318 -0.2688,-0.6 -0.6,-0.6 z m -8.45625,3.54375 c -0.15345,0 -0.31395,0.05145 -0.43125,0.16875 -0.2346,0.2346 -0.2346,0.60915 0,0.84375 l 2.53125,2.53125 c 0.117,0.117 0.2589,0.16875 0.4125,0.16875 0.1536,0 0.31425,-0.05175 0.43125,-0.16875 0.2346,-0.2346 0.2346,-0.60915 0,-0.84375 L 7.95625,21.5125 C 7.83895,21.3952 7.6972,21.34375 7.54375,21.34375 Z m 16.9125,0 c -0.15345,0 -0.2952,0.05145 -0.4125,0.16875 l -2.53125,2.53125 c -0.2346,0.2346 -0.2346,0.60915 0,0.84375 0.1176,0.117 0.27825,0.16875 0.43125,0.16875 0.1536,0 0.2955,-0.05175 0.4125,-0.16875 l 2.53125,-2.53125 c 0.2346,-0.2346 0.2346,-0.60915 0,-0.84375 -0.1173,-0.1173 -0.2778,-0.16875 -0.43125,-0.16875 z M 16,24.4 c -3.1062,0 -5.6607,2.3724 -5.9625,5.4 H 1.6 C 1.2688,29.8 1,30.0682 1,30.4 1,30.7318 1.2688,31 1.6,31 h 28.8 c 0.3318,0 0.6,-0.2682 0.6,-0.6 0,-0.3318 -0.2682,-0.6 -0.6,-0.6 H 21.9625 C 21.6601,26.7724 19.1056,24.4 16,24.4 Z"
     id="path9"
     style="stroke-width:0.6" />
</svg>
